{"title":"My.Name.Is.khan.CAM.1CD.Garfield2","uid":5358166,"size":680286208,"categoryP":"video","categoryS":"movies","magnet":"?xt=urn:btih:3df565d36bba5af64270ba69e46bb054edc223f1&amp;dn=My.Name.Is.khan.CAM.1CD.Garfield2&amp;tr=udp%3A%2F%2Ftracker.openbittorrent.com%3A80&amp;tr=udp%3A%2F%2Fopen.demonii.com%3A1337&amp;tr=udp%3A%2F%2Ftracker.coppersurfer.tk%3A6969&amp;tr=udp%3A%2F%2Fexodus.desync.com%3A6969","seeders":0,"leechers":0,"uploader":"ankurcods","files":1,"time":1266011869,"description":"General\nComplete name                    : My.Name.Is.khan.CAM.1CD.Garfield2.avi\nFormat                           : MPEG-PS\nFile size                        : 649 MiB\nDuration                         : 2h 28mn\nOverall bit rate                 : 610 Kbps\n\nVideo\nID                               : 224 (0xE0)\nFormat                           : MPEG Video\nFormat version                   : Version 1\nFormat settings, Matrix          : Default\nDuration                         : 2h 28mn\nBit rate mode                    : Variable\nBit rate                         : 458 Kbps\nNominal bit rate                 : 1 500 Kbps\nWidth                            : 352 pixels\nHeight                           : 288 pixels\nDisplay aspect ratio             : 4/3\nFrame rate                       : 25.000 fps\nScan type                        : Progressive\nBits/(Pixel*Frame)               : 0.181\nStream size                      : 487 MiB (75%)\n\nAudio\nID                               : 192 (0xC0)\nFormat                           : MPEG Audio\nFormat version                   : Version 1\nFormat profile                   : Layer 2\nDuration                         : 2h 28mn\nBit rate mode                    : Constant\nBit rate                         : 128 Kbps\nChannel(s)                       : 2 channels\nSampling rate                    : 48.0 KHz\nResolution                       : 16 bits\nStream size                      : 136 MiB (21%)\n\nscreenshots\n\n","torrent":{"xt":"urn:btih:3df565d36bba5af64270ba69e46bb054edc223f1","amp;dn":"My.Name.Is.khan.CAM.1CD.Garfield2","amp;tr":["udp%3A%2F%2Ftracker.openbittorrent.com%3A80","udp%3A%2F%2Fopen.demonii.com%3A1337","udp%3A%2F%2Ftracker.coppersurfer.tk%3A6969","udp%3A%2F%2Fexodus.desync.com%3A6969"],"infoHash":"3df565d36bba5af64270ba69e46bb054edc223f1","infoHashBuffer":{"type":"Buffer","data":[61,245,101,211,107,186,90,246,66,112,186,105,228,107,176,84,237,194,35,241]},"announce":[],"urlList":[]}}